#!OML:ASF F:\VICON\USERDATA\INSTALL\rory3\rory3.ASF
:FULLY-SPECIFIED
:DEGREES
104
root -0.8262565253014067 17.802515005344507 23.170223773732726 4.218070848271623 -0.6395941975547017 -5.093486787412291
lfemur -46.825273793018496 9.074865757837035 -13.03631504753404
ltibia 107.9223897949266
lfoot 4.260855570454867 -8.005536320615084
ltoes -0.7603257406931565
rfemur -8.62158282974076 -3.3841608321241075 29.93084781644783
rtibia 15.384989418873701
rfoot -15.953025741729341 -11.594116012427671
rtoes -30.525748152513014
lowerback 1.0 -0.2204406115261892 4.254570082662803
upperback -1.1546039409415614 0.9228150734663283 1.9418031207039124
thorax -8.065098439595557 0.3168838909080575 -0.5259255817056205
lowerneck -23.021388050663752 -5.623410703717301 -1.3819626646868284
upperneck 16.300292803295065 -6.4111254105372915 2.620350550943758
head 8.415047995467503 -3.583948484952894 0.3264648714580492
lclavicle 7.497743327652175e-15 1.0348811285044885e-15
lhumerus -61.761622907097426 -1.2798827000298827 85.1473913592935
lradius 72.46312226680296
lwrist 32.716775575937795
lhand -26.802658871585912 -7.730398804102844
lfingers nan
lthumb -0.3765249038178142 22.65153819322712
rclavicle 1.1936248023518384e-14 4.4551372601898825e-15
rhumerus -26.2330173808783 15.234452230173641 -93.64330380247577
rradius 129.63053702976057
rwrist -29.379323554824694
rhand -18.730742501638904 1.0
rfingers nan
rthumb 7.5223232543237835 10.839025096454156
105
root -0.7902103584720469 17.892583780639445 23.878320569585554 4.1007265947538505 -0.19917849123183307 -4.916923424430476
lfemur -47.195981933473064 8.283396713983791 -13.6421052248947
ltibia 104.33793348552358
lfoot 4.967617562887488 -7.366699710380949
ltoes -1.3102853257371798
rfemur -6.800713183345792 -3.844406811751963 29.314817862852035
rtibia 13.34974076857634
rfoot -11.840336984339771 -9.796735268988533
rtoes -27.741783200682182
lowerback 1.0 -0.17283081350742258 4.388328470327177
upperback -1.3392912131245311 1.0080617663142561 1.781022910885843
thorax -8.092774345438524 0.32049920148625793 -0.6850132478798803
lowerneck -22.414602936372027 -5.790279157643556 -1.3587206014818782
upperneck 16.44632722599529 -6.675043975654712 2.4677665806640228
head 8.392004632112274 -3.6897434702989296 0.28348729190720273
lclavicle 3.1403139247394915e-14 -1.798279647461233e-15
lhumerus -62.03508719406619 -1.0489197754240331 85.03314088765254
lradius 73.16431036177264
lwrist 33.09213752451206
lhand -26.440893149854574 -8.983026301914766
lfingers nan
lthumb -0.008249345864060675 21.54757748428314
rclavicle 3.5942446649732484e-14 1.7705705458149387e-15
rhumerus -26.641875916193463 15.53318119826343 -93.66150744693631
rradius 132.16222267207678
rwrist -28.438721414701355
rhand -18.029012032511122 1.0
rfingers nan
rthumb 8.192147977924964 12.177820069060388
106
root -0.7744091131426868 17.956288547953285 24.474630647879895 3.949896547175745 0.16222889873184598 -4.842173927639081
lfemur -47.38891114275319 7.633034342438316 -14.122538680565976
ltibia 100.3428289580466
lfoot 3.8081346259966224 -6.046919074098687
ltoes -0.5137808939674553
rfemur -5.097626882197696 -4.254443059009308 28.780678623703352
rtibia 11.123354820570327
rfoot -6.814462997542653 -7.755076047846105
rtoes -25.124868650594724
lowerback 1.0 -0.11691354273188037 4.496423713616305
upperback -1.4659406962775043 1.1135320962514894 1.6988253313644641
thorax -8.055004805861632 0.3312629906193303 -0.7618157884912256
lowerneck -21.236118536235907 -5.891196349807484 -1.3117431834901612
upperneck 16.29120246612604 -6.836106478043727 2.3733615625631908
head 8.217412362871082 -3.738833422995278 0.26849854417225466
lclavicle -3.2294995131371074e-14 8.29696699949942e-16
lhumerus -62.38536522872736 -0.6429837915948324 84.86573912423897
lradius 73.9565838117147
lwrist 33.332635828868874
lhand -24.747016899880226 -11.445025824430173
lfingers nan
lthumb 1.653202283230422 19.185721215884527
rclavicle -2.720016438162882e-14 4.719187089865118e-15
rhumerus -27.373678750310297 15.389293554047335 -93.67822400602896
rradius 134.4199332562413
rwrist -30.09227710531556
rhand -15.671677903023035 1.0
rfingers nan
rthumb 10.427081782507317 14.053678033614585
107
root -0.7625545292720122 18.00434943076448 24.965687863470094 3.7519136796701718 0.5196939019971332 -4.133240283543091
lfemur -47.22504258689371 6.847513673368847 -15.128576500905481
ltibia 95.85988281126414
lfoot 3.236533666026313 -5.544753112274293
ltoes -3.9445616128456304
rfemur -3.464431766436631 -4.851477194446321 27.5201881068061
rtibia 8.806776174084277
rfoot -0.18795013106029668 -5.443724018912063
rtoes -19.854292996548722
lowerback 1.0 -0.08185208298244118 4.1589099163161105
upperback -1.3914404372828526 1.0949270499231414 1.4498446733725525
thorax -7.61495208250394 0.3089369388978612 -0.7107534769626898
lowerneck -20.367640522529907 -5.929546112972577 -1.2081949585330762
upperneck 16.119880070557667 -6.872774892416092 2.2714869556813064
head 8.060844521122291 -3.748649864859024 0.25080461609050914
lclavicle 1.5373314754193168e-14 4.9316293917314405e-14
lhumerus -62.7808492344646 -0.13204368442130932 84.60973592753861
lradius 74.99905377466048
lwrist 33.58106828851164
lhand -37.55286305208127 26.359126837618795
lfingers nan
lthumb -10.847282030706609 55.956407770804034
rclavicle 1.9723327791275035e-14 5.281633935767116e-14
rhumerus -27.65641314113152 16.417426719815886 -93.86562486820756
rradius 135.66096642169092
rwrist -25.490674636507116
rhand -17.461712455400118 1.0
rfingers nan
rthumb 8.68309047843899 11.213288119794102
